<?xml version="1.0" ?><!DOCTYPE svg  PUBLIC '-//W3C//DTD SVG 1.1//EN'  'http://www.w3.org/Graphics/SVG/1.1/DTD/svg11.dtd'><svg enable-background="new 0 0 500 500" height="500px" id="Capa_1" version="1.1" viewBox="0 0 500 500" width="500px" xml:space="preserve" xmlns="http://www.w3.org/2000/svg" xmlns:xlink="http://www.w3.org/1999/xlink"><path d="M412.226,87.133L88.29,412.367c41.458,40.974,98.435,66.279,161.33,66.279  c126.765,0,229.526-102.765,229.526-229.527C479.146,185.895,453.58,128.644,412.226,87.133z" fill="#FF2727"/><path d="M249.619,19.592c-126.765,0-229.527,102.762-229.527,229.527c0,63.87,26.096,121.639,68.197,163.248  L412.226,87.133C370.665,45.414,313.159,19.592,249.619,19.592z" fill="#CE2020"/><circle cx="249.062" cy="248.562" fill="none" r="243.438" stroke="#CE2020" stroke-miterlimit="10" stroke-width="5"/><path d="M248.979,383.469c-24.712-0.639-49.325-1.186-73.931-1.944c-14.485-0.449-26.708-13.043-27.625-27.679  c-1.442-23.006-1.913-46.01-0.591-69.029c0.324-5.641,0.433-11.393,1.668-16.858c2.867-12.688,14.229-21.51,27.249-22.079  c41.605-1.817,83.222-1.866,124.843-0.8c8.754,0.225,17.578,0.295,26.225,1.49c12.638,1.747,22.754,13.535,23.625,26.223  c1.453,21.135,1.978,42.285,1.023,63.453c-0.318,7.07-0.499,14.192-1.546,21.17c-2.019,13.477-14.063,23.752-27.728,24.139  C297.761,382.24,273.328,382.836,248.979,383.469z M265.307,357.971c0.098-1.772,0.172-3.121,0.245-4.475  c1.929,1.396,3.513,2.867,5.362,3.826c8.135,4.223,16.043,0.162,17.415-8.857c0.239-1.567,0.397-3.168,0.401-4.752  c0.035-12.658,0.043-25.316,0.006-37.975c-0.006-1.85-0.17-3.723-0.485-5.543c-0.805-4.648-2.589-8.773-7.411-10.504  c-5.006-1.797-9.383-0.303-13.188,3.203c-0.613,0.565-1.219,1.143-2.269,2.127c0-10.035,0-19.453,0-28.916c-4.286,0-8.305,0-12.6,0  c0,1.147,0,2.102,0,3.055c0,19.828,0,39.658,0,59.485c0,8.941-0.004,17.884,0.006,26.822c0,1.211-0.271,2.562,1.729,2.523  C258.043,357.922,261.568,357.971,265.307,357.971z M322.221,333.137c-0.179,3.287-0.195,6.461-0.566,9.592  c-0.352,2.962-1.914,4.166-4.809,4.257c-3.013,0.096-4.88-0.89-5.166-3.771c-0.562-5.656-0.596-11.363-0.861-17.385  c8.369,0,16.111,0,23.812,0c0-7.465,0.353-14.631-0.09-21.748c-0.534-8.604-5.437-14.168-12.742-15.541  c-9.39-1.766-17.832,1.732-21.313,9.48c-1.437,3.194-2.105,6.959-2.207,10.489c-0.286,9.994-0.149,20.004-0.063,30.006  c0.022,2.55,0.185,5.168,0.789,7.632c1.75,7.123,5.976,12.102,13.495,13.233c7.225,1.09,14.154,0.236,18.777-6.334  c4.229-6.01,3.736-12.977,3.543-19.912C330.448,333.137,326.406,333.137,322.221,333.137z M228.177,289.924c0,1.027,0,1.896,0,2.766  c0,14.705-0.198,29.414,0.12,44.111c0.096,4.479-2.082,6.666-5.425,8.412c-2.955,1.541-5.058,0.277-5.32-3.025  c-0.056-0.704-0.042-1.415-0.042-2.125c0.001-15.768,0.006-31.534,0.002-47.303c0-0.928-0.076-1.855-0.118-2.816  c-4.25,0-8.195,0-12.444,0c0,1.121,0,2.068,0,3.019c0,11.781-0.032,23.562,0.012,35.344c0.027,7.263-0.138,14.543,0.346,21.775  c0.506,7.547,5.877,10.723,12.93,7.877c2.483-1.002,4.656-2.816,6.896-4.367c0.977-0.676,1.765-1.623,3.067-2.85  c0,2.688,0,4.842,0,7.074c4.237,0,8.175,0,12.227,0c0-22.703,0-45.236,0-67.892C236.3,289.924,232.354,289.924,228.177,289.924z   M190.533,279.945c5.064,0,9.776,0,14.456,0c0-4.857,0-9.32,0-13.881c-14.356,0-28.492,0-42.809,0c0,4.696,0,9.233,0,14.045  c4.854,0,9.509,0,14.48,0c0,26.063,0,51.856,0,77.646c4.786,0,9.242,0,13.873,0C190.533,331.859,190.533,306.193,190.533,279.945z" fill="#FFFFFF"/><path d="M221.233,187.989c0-6.91-0.006-13.821,0.002-20.731c0.016-13.597,7.996-21.807,21.624-22.259  c13.903-0.461,23.059,8.293,23.106,22.198c0.047,14.086,0.01,28.173,0.008,42.26c0,4.968-0.877,9.728-3.779,13.872  c-5.567,7.945-13.694,9.683-22.582,8.519c-10.904-1.429-17.964-9.567-18.279-20.737c-0.217-7.702-0.042-15.414-0.042-23.122  C221.272,187.989,221.253,187.989,221.233,187.989z M237.139,187.965c0.012,0,0.025,0,0.038,0c0,7.785-0.121,15.572,0.041,23.353  c0.116,5.6,5.579,8.371,10.194,5.354c2.463-1.61,2.842-4.144,2.846-6.772c0.022-14.597,0.043-29.194-0.005-43.791  c-0.015-4.281-2.644-6.781-6.795-6.752c-3.992,0.027-6.29,2.476-6.309,6.846C237.116,173.456,237.139,180.71,237.139,187.965z" fill="#FFFFFF"/><path d="M193.511,162.477c0.244-0.899,0.512-1.792,0.729-2.698c3.173-13.245,6.376-26.482,9.464-39.747  c0.447-1.92,1.246-2.553,3.206-2.497c4.854,0.139,9.716,0.046,15.007,0.046c-0.848,2.889-1.575,5.469-2.363,8.03  c-5.746,18.678-11.517,37.351-17.235,56.038c-0.381,1.245-0.544,2.603-0.548,3.909c-0.041,13.642-0.028,27.284-0.03,40.925  c0,1.052,0,2.104,0,3.36c-5.793,0-11.397,0-17.303,0c0-2.101,0-4.113,0-6.126c0.003-12.047,0.028-24.095-0.021-36.142  c-0.006-1.387-0.275-2.817-0.679-4.15c-6.38-21.074-12.803-42.136-19.209-63.203c-0.228-0.749-0.384-1.52-0.656-2.616  c5.577,0,10.96-0.07,16.335,0.103c0.575,0.019,1.391,1.382,1.61,2.245c3.294,12.942,6.504,25.906,9.747,38.861  c0.311,1.241,0.708,2.461,1.065,3.691C192.924,162.496,193.218,162.486,193.511,162.477z" fill="#FFFFFF"/><path d="M307.715,147.216c5.203,0,10.129,0,15.252,0c0,27.513,0,55.004,0,82.664c-5.002,0-9.915,0-15.174,0  c0-2.709,0-5.392,0-8.073c-0.292-0.185-0.585-0.368-0.877-0.553c-0.532,0.745-0.917,1.693-1.621,2.197  c-3.209,2.301-6.255,5.089-9.827,6.578c-8.907,3.713-15.728-0.7-16.153-10.328c-0.355-8.043-0.162-16.112-0.172-24.17  c-0.02-14.965-0.01-29.931-0.013-44.896c0-1.057,0-2.114,0-3.375c5.142,0,10.126,0,15.437,0c0,1.107,0,2.142,0,3.176  c0.004,19.836,0.002,39.672,0.023,59.509c0.002,2.184-0.371,4.671,2.076,5.871c2.493,1.222,4.609-0.184,6.617-1.541  c3.007-2.034,4.598-4.464,4.542-8.514c-0.259-18.416-0.111-36.838-0.11-55.257C307.715,149.459,307.715,148.416,307.715,147.216z" fill="#FFFFFF"/><path d="M265.307,357.971c-3.736,0-7.264-0.049-10.787,0.021c-2,0.039-1.729-1.312-1.729-2.523  c-0.01-8.938-0.006-17.881-0.006-26.821c0-19.828,0-39.658,0-59.486c0-0.953,0-1.906,0-3.056c4.295,0,8.312,0,12.6,0  c0,9.463,0,18.881,0,28.916c1.049-0.983,1.654-1.561,2.268-2.127c3.806-3.506,8.183-5,13.188-3.203  c4.822,1.73,6.606,5.855,7.411,10.504c0.316,1.82,0.48,3.693,0.486,5.544c0.037,12.658,0.029,25.315-0.006,37.975  c-0.004,1.584-0.162,3.185-0.402,4.752c-1.372,9.021-9.28,13.08-17.415,8.857c-1.851-0.959-3.435-2.431-5.362-3.826  C265.479,354.85,265.402,356.197,265.307,357.971z M265.432,323.551c0,6.01-0.002,12.021,0,18.031  c0.002,3.24,2.176,5.471,5.539,5.691c2.975,0.194,4.463-1.314,4.853-4.966c0.075-0.7,0.087-1.409,0.087-2.116  c0.005-10.519,0.027-21.037-0.021-31.556c-0.007-1.573-0.16-3.202-0.593-4.706c-0.711-2.478-3.004-3.664-5.659-3.22  c-2.646,0.442-4.203,2.218-4.203,4.81C265.428,311.529,265.43,317.541,265.432,323.551z" fill="#444444"/><path d="M322.221,333.137c4.187,0,8.229,0,12.596,0c0.193,6.937,0.688,13.902-3.541,19.912  c-4.625,6.57-11.555,7.424-18.778,6.334c-7.521-1.133-11.745-6.11-13.495-13.233c-0.604-2.464-0.768-5.082-0.789-7.632  c-0.086-10.002-0.223-20.012,0.062-30.006c0.103-3.531,0.771-7.295,2.209-10.49c3.48-7.748,11.924-11.246,21.312-9.479  c7.307,1.373,12.208,6.938,12.742,15.541c0.441,7.117,0.09,14.283,0.09,21.748c-7.699,0-15.441,0-23.812,0  c0.268,6.021,0.3,11.729,0.863,17.385c0.285,2.881,2.152,3.865,5.164,3.771c2.895-0.091,4.457-1.295,4.809-4.257  C322.023,339.598,322.042,336.424,322.221,333.137z M322.154,314.428c-0.172-3.28-0.157-6.459-0.561-9.582  c-0.339-2.633-2.24-3.908-4.857-4.022c-2.756-0.119-4.778,1.139-5.207,3.881c-0.494,3.168-0.434,6.42-0.617,9.725  C314.866,314.428,318.294,314.428,322.154,314.428z" fill="#444444"/><path d="M228.177,289.924c4.177,0,8.123,0,12.252,0c0,22.654,0,45.188,0,67.892c-4.052,0-7.99,0-12.227,0  c0-2.232,0-4.386,0-7.074c-1.302,1.227-2.09,2.174-3.067,2.85c-2.24,1.551-4.412,3.365-6.896,4.367  c-7.053,2.846-12.424-0.33-12.93-7.877c-0.484-7.232-0.319-14.514-0.346-21.775c-0.044-11.78-0.012-23.562-0.012-35.344  c0-0.948,0-1.896,0-3.019c4.249,0,8.193,0,12.444,0c0.042,0.961,0.118,1.89,0.118,2.816c0.004,15.769-0.001,31.535-0.002,47.304  c0,0.709-0.014,1.42,0.042,2.125c0.262,3.303,2.365,4.565,5.32,3.024c3.343-1.746,5.521-3.934,5.425-8.412  c-0.318-14.696-0.12-29.406-0.12-44.111C228.177,291.82,228.177,290.951,228.177,289.924z" fill="#444444"/><path d="M190.533,279.945c0,26.248,0,51.914,0,77.811c-4.63,0-9.087,0-13.873,0c0-25.789,0-51.582,0-77.646  c-4.971,0-9.626,0-14.48,0c0-4.811,0-9.348,0-14.045c14.317,0,28.453,0,42.809,0c0,4.562,0,9.023,0,13.881  C200.309,279.945,195.597,279.945,190.533,279.945z" fill="#444444"/><path d="M265.43,323.551c0-6.01-0.002-12.021,0.002-18.031c0-2.592,1.558-4.365,4.203-4.809  c2.656-0.445,4.949,0.742,5.66,3.219c0.432,1.504,0.586,3.133,0.594,4.707c0.049,10.519,0.025,21.037,0.021,31.556  c0,0.707-0.013,1.416-0.087,2.116c-0.389,3.65-1.877,5.16-4.852,4.966c-3.363-0.222-5.537-2.451-5.539-5.691  C265.43,335.57,265.432,329.561,265.43,323.551z" fill="#FFFFFF"/><path d="M322.154,314.428c-3.86,0-7.288,0-11.242,0c0.186-3.305,0.123-6.557,0.617-9.725  c0.429-2.742,2.451-4,5.207-3.881c2.617,0.115,4.52,1.391,4.857,4.023C321.997,307.969,321.982,311.146,322.154,314.428z" fill="#FFFFFF"/></svg>